<?xml version="1.0" encoding="UTF-8" ?>
<svg version="1.1" width="1152" height="640" xmlns="http://www.w3.org/2000/svg" shape-rendering="crispEdges">
<rect x="0" y="0" width="1152" height="1" fill="#000000" />
<rect x="0" y="1" width="1" height="639" fill="#000000" />
<rect x="63" y="1" width="2" height="639" fill="#000000" />
<rect x="127" y="1" width="2" height="639" fill="#000000" />
<rect x="191" y="1" width="2" height="639" fill="#000000" />
<rect x="255" y="1" width="2" height="639" fill="#000000" />
<rect x="319" y="1" width="2" height="639" fill="#000000" />
<rect x="383" y="1" width="2" height="639" fill="#000000" />
<rect x="447" y="1" width="2" height="639" fill="#000000" />
<rect x="511" y="1" width="2" height="639" fill="#000000" />
<rect x="575" y="1" width="2" height="639" fill="#000000" />
<rect x="639" y="1" width="2" height="639" fill="#000000" />
<rect x="703" y="1" width="2" height="639" fill="#000000" />
<rect x="767" y="1" width="2" height="639" fill="#000000" />
<rect x="831" y="1" width="2" height="639" fill="#000000" />
<rect x="895" y="1" width="2" height="639" fill="#000000" />
<rect x="959" y="1" width="2" height="639" fill="#000000" />
<rect x="1023" y="1" width="2" height="639" fill="#000000" />
<rect x="1087" y="1" width="2" height="639" fill="#000000" />
<rect x="1151" y="1" width="1" height="639" fill="#000000" />
<rect x="1" y="63" width="62" height="2" fill="#000000" />
<rect x="65" y="63" width="62" height="2" fill="#000000" />
<rect x="129" y="63" width="62" height="2" fill="#000000" />
<rect x="193" y="63" width="62" height="2" fill="#000000" />
<rect x="257" y="63" width="62" height="2" fill="#000000" />
<rect x="321" y="63" width="62" height="2" fill="#000000" />
<rect x="385" y="63" width="62" height="2" fill="#000000" />
<rect x="449" y="63" width="62" height="2" fill="#000000" />
<rect x="513" y="63" width="62" height="2" fill="#000000" />
<rect x="577" y="63" width="62" height="2" fill="#000000" />
<rect x="641" y="63" width="62" height="2" fill="#000000" />
<rect x="705" y="63" width="62" height="2" fill="#000000" />
<rect x="769" y="63" width="62" height="2" fill="#000000" />
<rect x="833" y="63" width="62" height="2" fill="#000000" />
<rect x="897" y="63" width="62" height="2" fill="#000000" />
<rect x="961" y="63" width="62" height="2" fill="#000000" />
<rect x="1025" y="63" width="62" height="2" fill="#000000" />
<rect x="1089" y="63" width="62" height="2" fill="#000000" />
<rect x="1" y="127" width="62" height="2" fill="#000000" />
<rect x="65" y="127" width="62" height="2" fill="#000000" />
<rect x="129" y="127" width="62" height="2" fill="#000000" />
<rect x="193" y="127" width="62" height="2" fill="#000000" />
<rect x="257" y="127" width="62" height="2" fill="#000000" />
<rect x="321" y="127" width="62" height="2" fill="#000000" />
<rect x="385" y="127" width="62" height="2" fill="#000000" />
<rect x="449" y="127" width="62" height="2" fill="#000000" />
<rect x="513" y="127" width="62" height="2" fill="#000000" />
<rect x="577" y="127" width="62" height="2" fill="#000000" />
<rect x="641" y="127" width="62" height="2" fill="#000000" />
<rect x="705" y="127" width="62" height="2" fill="#000000" />
<rect x="769" y="127" width="62" height="2" fill="#000000" />
<rect x="833" y="127" width="62" height="2" fill="#000000" />
<rect x="897" y="127" width="62" height="2" fill="#000000" />
<rect x="961" y="127" width="62" height="2" fill="#000000" />
<rect x="1025" y="127" width="62" height="2" fill="#000000" />
<rect x="1089" y="127" width="62" height="2" fill="#000000" />
<rect x="1" y="191" width="62" height="2" fill="#000000" />
<rect x="65" y="191" width="62" height="2" fill="#000000" />
<rect x="129" y="191" width="62" height="2" fill="#000000" />
<rect x="193" y="191" width="62" height="2" fill="#000000" />
<rect x="257" y="191" width="62" height="2" fill="#000000" />
<rect x="321" y="191" width="62" height="2" fill="#000000" />
<rect x="385" y="191" width="62" height="2" fill="#000000" />
<rect x="449" y="191" width="62" height="2" fill="#000000" />
<rect x="513" y="191" width="62" height="2" fill="#000000" />
<rect x="577" y="191" width="62" height="2" fill="#000000" />
<rect x="641" y="191" width="62" height="2" fill="#000000" />
<rect x="705" y="191" width="62" height="2" fill="#000000" />
<rect x="769" y="191" width="62" height="2" fill="#000000" />
<rect x="833" y="191" width="62" height="2" fill="#000000" />
<rect x="897" y="191" width="62" height="2" fill="#000000" />
<rect x="961" y="191" width="62" height="2" fill="#000000" />
<rect x="1025" y="191" width="62" height="2" fill="#000000" />
<rect x="1089" y="191" width="62" height="2" fill="#000000" />
<rect x="1" y="255" width="62" height="2" fill="#000000" />
<rect x="65" y="255" width="62" height="2" fill="#000000" />
<rect x="129" y="255" width="62" height="2" fill="#000000" />
<rect x="193" y="255" width="62" height="2" fill="#000000" />
<rect x="257" y="255" width="62" height="2" fill="#000000" />
<rect x="321" y="255" width="62" height="2" fill="#000000" />
<rect x="385" y="255" width="62" height="2" fill="#000000" />
<rect x="449" y="255" width="62" height="2" fill="#000000" />
<rect x="513" y="255" width="62" height="2" fill="#000000" />
<rect x="577" y="255" width="62" height="2" fill="#000000" />
<rect x="641" y="255" width="62" height="2" fill="#000000" />
<rect x="705" y="255" width="62" height="2" fill="#000000" />
<rect x="769" y="255" width="62" height="2" fill="#000000" />
<rect x="833" y="255" width="62" height="2" fill="#000000" />
<rect x="897" y="255" width="62" height="2" fill="#000000" />
<rect x="961" y="255" width="62" height="2" fill="#000000" />
<rect x="1025" y="255" width="62" height="2" fill="#000000" />
<rect x="1089" y="255" width="62" height="2" fill="#000000" />
<rect x="1" y="319" width="62" height="2" fill="#000000" />
<rect x="65" y="319" width="62" height="2" fill="#000000" />
<rect x="129" y="319" width="62" height="2" fill="#000000" />
<rect x="193" y="319" width="62" height="2" fill="#000000" />
<rect x="257" y="319" width="62" height="2" fill="#000000" />
<rect x="321" y="319" width="62" height="2" fill="#000000" />
<rect x="385" y="319" width="62" height="2" fill="#000000" />
<rect x="449" y="319" width="62" height="2" fill="#000000" />
<rect x="513" y="319" width="62" height="2" fill="#000000" />
<rect x="577" y="319" width="62" height="2" fill="#000000" />
<rect x="641" y="319" width="62" height="2" fill="#000000" />
<rect x="705" y="319" width="62" height="2" fill="#000000" />
<rect x="769" y="319" width="62" height="2" fill="#000000" />
<rect x="833" y="319" width="62" height="2" fill="#000000" />
<rect x="897" y="319" width="62" height="2" fill="#000000" />
<rect x="961" y="319" width="62" height="2" fill="#000000" />
<rect x="1025" y="319" width="62" height="2" fill="#000000" />
<rect x="1089" y="319" width="62" height="2" fill="#000000" />
<rect x="1" y="383" width="62" height="2" fill="#000000" />
<rect x="65" y="383" width="62" height="2" fill="#000000" />
<rect x="129" y="383" width="62" height="2" fill="#000000" />
<rect x="193" y="383" width="62" height="2" fill="#000000" />
<rect x="257" y="383" width="62" height="2" fill="#000000" />
<rect x="321" y="383" width="62" height="2" fill="#000000" />
<rect x="385" y="383" width="62" height="2" fill="#000000" />
<rect x="449" y="383" width="62" height="2" fill="#000000" />
<rect x="513" y="383" width="62" height="2" fill="#000000" />
<rect x="577" y="383" width="62" height="2" fill="#000000" />
<rect x="641" y="383" width="62" height="2" fill="#000000" />
<rect x="705" y="383" width="62" height="2" fill="#000000" />
<rect x="769" y="383" width="62" height="2" fill="#000000" />
<rect x="833" y="383" width="62" height="2" fill="#000000" />
<rect x="897" y="383" width="62" height="2" fill="#000000" />
<rect x="961" y="383" width="62" height="2" fill="#000000" />
<rect x="1025" y="383" width="62" height="2" fill="#000000" />
<rect x="1089" y="383" width="62" height="2" fill="#000000" />
<rect x="1" y="447" width="62" height="2" fill="#000000" />
<rect x="65" y="447" width="62" height="2" fill="#000000" />
<rect x="129" y="447" width="62" height="2" fill="#000000" />
<rect x="193" y="447" width="62" height="2" fill="#000000" />
<rect x="257" y="447" width="62" height="2" fill="#000000" />
<rect x="321" y="447" width="62" height="2" fill="#000000" />
<rect x="385" y="447" width="62" height="2" fill="#000000" />
<rect x="449" y="447" width="62" height="2" fill="#000000" />
<rect x="513" y="447" width="62" height="2" fill="#000000" />
<rect x="577" y="447" width="62" height="2" fill="#000000" />
<rect x="641" y="447" width="62" height="2" fill="#000000" />
<rect x="705" y="447" width="62" height="2" fill="#000000" />
<rect x="769" y="447" width="62" height="2" fill="#000000" />
<rect x="833" y="447" width="62" height="2" fill="#000000" />
<rect x="897" y="447" width="62" height="2" fill="#000000" />
<rect x="961" y="447" width="62" height="2" fill="#000000" />
<rect x="1025" y="447" width="62" height="2" fill="#000000" />
<rect x="1089" y="447" width="62" height="2" fill="#000000" />
<rect x="1" y="511" width="62" height="2" fill="#000000" />
<rect x="65" y="511" width="62" height="2" fill="#000000" />
<rect x="129" y="511" width="62" height="2" fill="#000000" />
<rect x="193" y="511" width="62" height="2" fill="#000000" />
<rect x="257" y="511" width="62" height="2" fill="#000000" />
<rect x="321" y="511" width="62" height="2" fill="#000000" />
<rect x="385" y="511" width="62" height="2" fill="#000000" />
<rect x="449" y="511" width="62" height="2" fill="#000000" />
<rect x="513" y="511" width="62" height="2" fill="#000000" />
<rect x="577" y="511" width="62" height="2" fill="#000000" />
<rect x="641" y="511" width="62" height="2" fill="#000000" />
<rect x="705" y="511" width="62" height="2" fill="#000000" />
<rect x="769" y="511" width="62" height="2" fill="#000000" />
<rect x="833" y="511" width="62" height="2" fill="#000000" />
<rect x="897" y="511" width="62" height="2" fill="#000000" />
<rect x="961" y="511" width="62" height="2" fill="#000000" />
<rect x="1025" y="511" width="62" height="2" fill="#000000" />
<rect x="1089" y="511" width="62" height="2" fill="#000000" />
<rect x="1" y="575" width="62" height="2" fill="#000000" />
<rect x="65" y="575" width="62" height="2" fill="#000000" />
<rect x="129" y="575" width="62" height="2" fill="#000000" />
<rect x="193" y="575" width="62" height="2" fill="#000000" />
<rect x="257" y="575" width="62" height="2" fill="#000000" />
<rect x="321" y="575" width="62" height="2" fill="#000000" />
<rect x="385" y="575" width="62" height="2" fill="#000000" />
<rect x="449" y="575" width="62" height="2" fill="#000000" />
<rect x="513" y="575" width="62" height="2" fill="#000000" />
<rect x="577" y="575" width="62" height="2" fill="#000000" />
<rect x="641" y="575" width="62" height="2" fill="#000000" />
<rect x="705" y="575" width="62" height="2" fill="#000000" />
<rect x="769" y="575" width="62" height="2" fill="#000000" />
<rect x="833" y="575" width="62" height="2" fill="#000000" />
<rect x="897" y="575" width="62" height="2" fill="#000000" />
<rect x="961" y="575" width="62" height="2" fill="#000000" />
<rect x="1025" y="575" width="62" height="2" fill="#000000" />
<rect x="1089" y="575" width="62" height="2" fill="#000000" />
<rect x="1" y="639" width="62" height="1" fill="#000000" />
<rect x="65" y="639" width="62" height="1" fill="#000000" />
<rect x="129" y="639" width="62" height="1" fill="#000000" />
<rect x="193" y="639" width="62" height="1" fill="#000000" />
<rect x="257" y="639" width="62" height="1" fill="#000000" />
<rect x="321" y="639" width="62" height="1" fill="#000000" />
<rect x="385" y="639" width="62" height="1" fill="#000000" />
<rect x="449" y="639" width="62" height="1" fill="#000000" />
<rect x="513" y="639" width="62" height="1" fill="#000000" />
<rect x="577" y="639" width="62" height="1" fill="#000000" />
<rect x="641" y="639" width="62" height="1" fill="#000000" />
<rect x="705" y="639" width="62" height="1" fill="#000000" />
<rect x="769" y="639" width="62" height="1" fill="#000000" />
<rect x="833" y="639" width="62" height="1" fill="#000000" />
<rect x="897" y="639" width="62" height="1" fill="#000000" />
<rect x="961" y="639" width="62" height="1" fill="#000000" />
<rect x="1025" y="639" width="62" height="1" fill="#000000" />
<rect x="1089" y="639" width="62" height="1" fill="#000000" />
</svg>